HIERARCHY
ROOT Hips
{
	OFFSET 0.000000 0.000000 0.000000
	CHANNELS 6 Xposition Yposition Zposition Zrotation Yrotation Xrotation 
	JOINT LHipJoint
	{
		OFFSET 0.000000 0.000000 0.000000
		CHANNELS 3 Zrotation Yrotation Xrotation
		JOINT LeftUpLeg
		{
			OFFSET 1.363060 -1.794630 0.839290
			CHANNELS 3 Zrotation Yrotation Xrotation
			JOINT LeftLeg
			{
				OFFSET 2.448110 -6.726130 0.000000
				CHANNELS 3 Zrotation Yrotation Xrotation
				JOINT LeftFoot
				{
					OFFSET 2.562200 -7.039590 0.000000
					CHANNELS 3 Zrotation Yrotation Xrotation
					JOINT LeftToeBase
					{
						OFFSET 0.157640 -0.433110 2.322550
						CHANNELS 3 Zrotation Yrotation Xrotation
						End Site
						{
							OFFSET 0.000000 0.000000 0.000000
						}
					}
				}
			}
		}
	}
	JOINT RHipJoint
	{
		OFFSET 0.000000 0.000000 0.000000
		CHANNELS 3 Zrotation Yrotation Xrotation
		JOINT RightUpLeg
		{
			OFFSET -1.305520 -1.794630 0.839290
			CHANNELS 3 Zrotation Yrotation Xrotation
			JOINT RightLeg
			{
				OFFSET -2.542530 -6.985550 0.000000
				CHANNELS 3 Zrotation Yrotation Xrotation
				JOINT RightFoot
				{
					OFFSET -2.568260 -7.056230 0.000000
					CHANNELS 3 Zrotation Yrotation Xrotation
					JOINT RightToeBase
					{
						OFFSET -0.164730 -0.452590 2.363150
						CHANNELS 3 Zrotation Yrotation Xrotation
						End Site
						{
							OFFSET 0.000000 0.000000 0.000000
						}
					}
				}
			}
		}
	}
}
MOTION
Frames: 14
Frame Time: 0.008333
1.481455 17.384774 1.128912 174.056241 -87.466978 -163.810780 -11.257100 2.170037 1.318202 -4.834117 13.535679 -10.192009 -2.073764 -1.387827 -3.717368 0.999968 9.511282 4.100241 2.145800 0.000000 -39.700400 9.679577 -2.476263 2.664220 3.341821 -2.961060 -11.094537 2.044410 0.849908 0.886103 -0.868251 -5.918733 3.925626 -1.881000 0.000000 -64.877600
1.474535 17.385519 1.107889 173.507085 -87.922336 -163.106581 -11.250397 2.153618 1.364285 -4.762442 13.426931 -10.405491 -2.087369 -1.396926 -3.828869 0.964901 9.296160 4.308881 2.139600 -0.000000 -39.970300 9.670609 -2.480174 2.675702 3.510116 -2.968676 -11.277775 2.036368 0.849460 1.116203 -0.934873 -6.233966 3.657610 -1.927300 0.000001 -64.370000
1.467552 17.386334 1.085540 172.815649 -88.366669 -162.226035 -11.239705 2.130661 1.406976 -4.696354 13.332401 -10.684079 -2.103347 -1.406116 -3.879872 0.930884 9.076965 4.483925 2.125700 -0.000000 -40.242400 9.662096 -2.483649 2.700693 3.681201 -2.921736 -11.548535 2.026411 0.841513 1.437794 -1.004897 -6.548743 3.365308 -1.968400 -0.000001 -63.821100
1.461215 17.387189 1.061695 171.815126 -88.803255 -161.010105 -11.220781 2.098283 1.443611 -4.634341 13.242110 -11.031573 -2.120529 -1.414066 -3.838677 0.899069 8.859741 4.611197 2.103700 -0.000000 -40.521600 9.658289 -2.486638 2.734842 3.851645 -2.834168 -11.906940 2.014878 0.823275 1.857157 -1.075903 -6.846871 3.053534 -2.000300 -0.000000 -63.248200
1.455559 17.388122 1.036117 170.309389 -89.235443 -159.254505 -11.187113 2.053928 1.477457 -4.574538 13.130996 -11.464109 -2.136987 -1.421137 -3.676514 0.872360 8.664436 4.674488 2.076200 0.000000 -40.798400 9.664294 -2.490768 2.780995 4.021802 -2.706040 -12.365329 2.001980 0.793476 2.373669 -1.147227 -7.123533 2.728167 -2.022600 -0.000000 -62.663600
1.450798 17.389090 1.008736 168.006416 -89.665357 -156.666261 -11.128876 1.995831 1.509474 -4.511853 12.982392 -11.989079 -2.150989 -1.427647 -3.370541 0.853025 8.508412 4.662584 2.046401 -0.000000 -41.065600 9.689248 -2.497294 2.840309 4.193043 -2.545158 -12.926079 1.988730 0.751010 2.976527 -1.216206 -7.364848 2.399296 -2.033300 0.000000 -62.087899
1.447036 17.389950 0.979627 -15.304696 -89.915900 26.960974 -11.035394 1.926082 1.539215 -4.439569 12.794187 -12.604333 -2.161195 -1.433068 -2.910342 0.842852 8.403571 4.569821 2.016700 0.000000 -41.316800 9.744124 -2.504857 2.911680 4.368505 -2.364874 -13.580478 1.977349 0.696497 3.644556 -1.277514 -7.547418 2.080919 -2.029500 -0.000000 -61.548900
1.444131 17.390528 0.949097 -19.229111 -89.550401 31.228563 -10.909536 1.853657 1.569283 -4.357123 12.577236 -13.304922 -2.166115 -1.434406 -2.300213 0.844951 8.363861 4.395549 1.989400 0.000000 -41.544900 9.827500 -2.507856 2.993259 4.546040 -2.170988 -14.314982 1.970663 0.634996 4.350329 -1.323654 -7.644071 1.789284 -2.009301 -0.000000 -61.074700
1.441751 17.390649 0.917649 -21.835938 -89.327270 34.197922 -10.801555 1.787739 1.604317 -4.284488 12.360021 -14.074738 -2.164103 -1.425880 -1.563689 0.862729 8.400620 4.147008 1.966000 0.000000 -41.743900 9.893348 -2.503860 3.078186 4.702380 -1.968898 -15.104943 1.972634 0.576061 5.061939 -1.344596 -7.619334 1.540425 -1.970300 0.000000 -60.693800
1.439484 17.390071 0.885997 -20.359643 -89.352366 33.091368 -10.796841 1.727336 1.646779 -4.256761 12.183342 -14.885681 -2.154242 -1.403079 -0.739845 0.897409 8.516421 3.838932 1.946400 -0.000000 -41.910100 9.861819 -2.502045 3.158303 4.800539 -1.764450 -15.918107 1.987885 0.529311 5.742167 -1.331187 -7.438971 1.348122 -1.910300 0.000001 -60.432400
1.436584 17.388703 0.854948 -14.974100 -89.694998 28.075013 -10.903408 1.683407 1.696695 -4.276638 12.098112 -15.709269 -2.137946 -1.363481 0.123070 0.949930 8.711903 3.486523 1.930900 0.000000 -42.039300 9.726840 -2.497480 3.233610 4.841578 -1.545461 -16.726562 2.019347 0.503277 6.352358 -1.276232 -7.079319 1.226702 -1.828500 0.000000 -60.308500
1.432253 17.386449 0.825274 171.222492 -89.663355 -157.761796 -11.031937 1.669617 1.742220 -4.303579 12.161549 -16.512037 -2.120791 -1.312027 0.976284 1.017084 8.973114 3.105065 1.918800 0.000000 -42.129300 9.575114 -2.477708 3.315716 4.873934 -1.291530 -17.503212 2.067822 0.498185 6.849863 -1.177375 -6.531910 1.190001 -1.723700 0.000000 -60.333200
1.425685 17.383368 0.797729 176.192252 -88.786261 -162.387131 -11.125319 1.673243 1.762796 -4.312194 12.418474 -17.257531 -2.109173 -1.261976 1.775669 1.090969 9.277735 2.713868 1.909500 -0.000000 -42.178800 9.461056 -2.455409 3.421877 4.929970 -0.987150 -18.226847 2.133837 0.505921 7.190955 -1.039110 -5.805086 1.245360 -1.595100 0.000000 -60.509900
1.416127 17.379630 0.772968 179.759976 -87.683623 -165.632317 -11.191133 1.681240 1.743919 -4.304723 12.912346 -17.909740 -2.107012 -1.220497 2.478741 1.165918 9.607392 2.327769 1.901600 0.000000 -42.188300 9.377027 -2.444948 3.559605 5.011148 -0.615981 -18.873445 2.218573 0.523488 7.344965 -0.864754 -4.905563 1.401480 -1.441699 -0.000000 -60.836400
